<?xml version="1.0" encoding="UTF-8"?>
<svg xmlns="http://www.w3.org/2000/svg" width="612" height="250" viewBox="0 0 612 250">
  <path fill="#2E2C2E" fill-rule="evenodd" d="M 243.50 0.00 L 245.00 1.50 L 253.00 1.50 L 258.00 10.50 L 264.00 7.50 L 269.00 7.50 L 270.50 10.00 L 260.50 18.00 L 262.50 21.00 L 261.50 27.00 L 257.00 28.50 L 255.50 30.00 L 256.50 32.00 L 253.00 35.50 L 240.00 37.50 L 235.00 41.50 L 230.00 41.50 L 223.00 50.50 L 219.00 51.50 L 211.00 47.50 L 205.50 41.00 L 205.50 37.00 L 201.50 32.00 L 201.50 27.00 L 200.00 25.50 L 195.00 23.50 L 182.00 24.50 L 179.00 21.50 L 174.50 20.00 L 176.00 18.50 L 181.00 18.50 L 188.00 11.50 L 191.00 11.50 L 194.00 8.50 L 208.00 8.50 L 211.00 3.50 L 214.00 4.50 L 217.00 1.50 L 221.50 0.00 Z M 177.50 249.00 L 172.50 245.00 L 170.50 239.00 L 170.50 232.00 L 173.50 228.00 L 173.50 216.00 L 176.50 211.00 L 176.50 204.00 L 178.50 202.00 L 179.50 186.00 L 169.50 179.00 L 164.50 168.00 L 160.50 164.00 L 160.50 155.00 L 166.50 149.00 L 166.50 143.00 L 164.00 140.50 L 161.00 142.50 L 153.00 137.50 L 149.00 131.50 L 145.00 131.50 L 138.00 126.50 L 136.00 128.50 L 129.00 126.50 L 121.00 121.50 L 116.00 113.50 L 112.00 115.50 L 102.50 107.00 L 99.50 99.00 L 87.50 87.00 L 86.50 72.00 L 81.00 68.50 L 78.00 63.50 L 74.00 64.50 L 70.50 61.00 L 70.50 59.00 L 63.00 52.50 L 47.00 49.50 L 41.00 52.50 L 37.00 57.50 L 32.00 56.50 L 27.00 59.50 L 20.00 60.50 L 19.00 58.50 L 26.50 54.00 L 21.00 51.50 L 15.00 52.50 L 13.50 51.00 L 15.50 49.00 L 15.50 45.00 L 11.50 41.00 L 16.50 38.00 L 14.50 36.00 L 16.00 34.50 L 28.00 31.50 L 30.00 29.50 L 37.00 31.50 L 48.00 31.50 L 58.00 33.50 L 61.00 32.50 L 65.00 34.50 L 68.00 32.50 L 74.00 33.50 L 77.00 31.50 L 81.00 31.50 L 84.00 33.50 L 85.50 32.00 L 83.50 30.00 L 92.00 20.50 L 101.00 19.50 L 104.00 21.50 L 111.00 16.50 L 116.00 22.50 L 120.00 22.50 L 121.50 21.00 L 119.50 18.00 L 124.00 15.50 L 132.00 19.50 L 141.00 19.50 L 146.00 23.50 L 162.00 23.50 L 165.00 26.50 L 169.00 26.50 L 174.00 29.50 L 184.00 31.50 L 187.00 35.50 L 196.50 40.00 L 190.50 45.00 L 190.50 49.00 L 197.00 56.50 L 206.50 63.00 L 204.50 66.00 L 209.00 68.50 L 210.50 72.00 L 209.00 73.50 L 200.00 72.50 L 198.00 77.50 L 191.00 78.50 L 188.00 80.50 L 182.00 78.50 L 180.50 80.00 L 181.50 82.00 L 176.00 84.50 L 171.50 90.00 L 171.50 92.00 L 161.50 100.00 L 164.50 108.00 L 162.00 111.50 L 156.00 103.50 L 149.00 102.50 L 147.00 104.50 L 139.00 103.50 L 134.50 108.00 L 133.50 113.00 L 134.50 118.00 L 138.00 121.50 L 142.00 120.50 L 145.00 116.50 L 150.00 115.50 L 152.50 118.00 L 150.50 125.00 L 152.00 126.50 L 156.00 125.50 L 158.50 128.00 L 158.50 136.00 L 160.00 137.50 L 166.00 136.50 L 169.00 138.50 L 173.00 133.50 L 177.00 131.50 L 180.00 133.50 L 181.00 132.50 L 184.00 135.50 L 196.00 134.50 L 204.00 143.50 L 207.00 142.50 L 211.00 144.50 L 218.00 154.50 L 222.00 154.50 L 227.00 157.50 L 232.00 157.50 L 242.50 165.00 L 240.50 172.00 L 234.50 178.00 L 234.50 186.00 L 231.50 192.00 L 228.00 194.50 L 220.00 196.50 L 218.50 198.00 L 218.50 203.00 L 212.50 210.00 L 206.00 214.50 L 201.00 221.50 L 196.00 222.50 L 187.50 232.00 L 188.50 236.00 L 182.50 243.00 L 186.00 246.50 L 189.00 246.50 L 190.50 248.00 L 189.50 249.00 Z M 611.00 41.50 L 608.50 44.00 L 610.50 46.00 L 609.00 47.50 L 601.00 47.50 L 595.00 50.50 L 584.00 50.50 L 581.50 53.00 L 582.50 55.00 L 580.50 59.00 L 577.00 60.50 L 568.00 69.50 L 566.50 68.00 L 568.50 63.00 L 566.50 58.00 L 571.00 52.50 L 576.50 50.00 L 574.00 47.50 L 565.00 53.50 L 559.00 51.50 L 546.00 52.50 L 539.00 57.50 L 537.50 59.00 L 539.00 60.50 L 542.00 59.50 L 544.00 61.50 L 547.00 60.50 L 548.50 62.00 L 547.50 64.00 L 549.50 69.00 L 547.50 71.00 L 547.50 75.00 L 552.50 80.00 L 551.00 81.50 L 546.00 81.50 L 544.50 83.00 L 545.50 87.00 L 543.50 92.00 L 536.00 96.50 L 530.00 98.50 L 529.00 97.50 L 525.00 100.50 L 521.00 95.50 L 519.00 96.50 L 516.50 94.00 L 517.50 92.00 L 513.00 86.50 L 510.50 88.00 L 511.50 91.00 L 508.50 95.00 L 511.50 99.00 L 511.50 105.00 L 501.00 115.50 L 491.50 119.00 L 492.50 121.00 L 488.50 125.00 L 490.50 133.00 L 483.00 139.50 L 475.00 132.50 L 472.50 137.00 L 479.50 146.00 L 481.50 151.00 L 480.50 154.00 L 484.50 158.00 L 483.50 162.00 L 486.00 164.50 L 497.00 165.50 L 498.50 167.00 L 497.00 169.50 L 483.00 167.50 L 472.50 157.00 L 471.50 153.00 L 463.50 145.00 L 467.00 143.50 L 472.00 147.50 L 473.50 146.00 L 468.50 139.00 L 470.50 136.00 L 468.50 133.00 L 468.50 128.00 L 467.00 126.50 L 464.00 128.50 L 462.50 127.00 L 462.50 122.00 L 457.00 116.50 L 451.00 117.50 L 439.50 128.00 L 438.50 136.00 L 441.50 139.00 L 441.50 143.00 L 439.00 144.50 L 436.00 140.50 L 434.00 142.50 L 432.50 141.00 L 432.50 138.00 L 426.50 128.00 L 424.50 121.00 L 425.50 120.00 L 424.00 118.50 L 421.00 118.50 L 419.50 115.00 L 414.00 110.50 L 404.00 111.50 L 402.50 113.00 L 404.50 116.00 L 397.00 125.50 L 376.50 134.00 L 380.00 135.50 L 388.00 132.50 L 389.50 134.00 L 389.50 138.00 L 383.50 148.00 L 378.00 151.50 L 368.50 163.00 L 369.50 168.00 L 372.50 172.00 L 371.50 180.00 L 368.00 184.50 L 362.50 188.00 L 363.50 195.00 L 358.50 199.00 L 358.50 202.00 L 349.00 211.50 L 345.00 213.50 L 333.00 213.50 L 330.50 206.00 L 325.50 200.00 L 325.50 194.00 L 320.50 185.00 L 320.50 177.00 L 323.50 174.00 L 323.50 172.00 L 321.50 169.00 L 321.50 164.00 L 315.50 157.00 L 317.50 148.00 L 316.00 146.50 L 311.00 147.50 L 307.00 142.50 L 298.00 146.50 L 291.00 145.50 L 289.00 147.50 L 286.00 147.50 L 270.50 133.00 L 270.50 127.00 L 272.50 124.00 L 271.50 115.00 L 275.50 108.00 L 282.50 103.00 L 283.50 98.00 L 289.50 93.00 L 283.50 88.00 L 283.50 80.00 L 286.00 77.50 L 296.00 77.50 L 297.50 76.00 L 296.00 72.50 L 291.50 71.00 L 293.50 67.00 L 291.00 64.50 L 284.00 66.50 L 282.50 65.00 L 282.50 61.00 L 287.50 57.00 L 289.00 53.50 L 294.00 51.50 L 306.00 64.50 L 308.00 63.50 L 314.50 57.00 L 309.50 52.00 L 308.50 48.00 L 320.00 41.50 L 327.00 34.50 L 330.00 33.50 L 346.00 30.50 L 354.00 31.50 L 364.00 35.50 L 369.00 35.50 L 374.00 38.50 L 377.00 34.50 L 381.00 34.50 L 383.00 36.50 L 393.00 35.50 L 394.50 34.00 L 388.50 30.00 L 400.00 22.50 L 405.00 21.50 L 419.00 20.50 L 420.50 22.00 L 416.00 25.50 L 404.00 25.50 L 400.00 27.50 L 398.50 29.00 L 400.50 31.00 L 399.50 33.00 L 402.00 35.50 L 405.00 33.50 L 413.00 34.50 L 414.50 31.00 L 421.00 26.50 L 424.00 26.50 L 428.00 29.50 L 430.00 27.50 L 433.00 28.50 L 439.00 26.50 L 447.00 26.50 L 452.00 23.50 L 460.00 23.50 L 463.00 21.50 L 471.00 22.50 L 477.00 19.50 L 481.00 19.50 L 484.00 21.50 L 497.00 21.50 L 499.00 26.50 L 511.00 27.50 L 521.00 25.50 L 525.00 31.50 L 528.00 29.50 L 539.00 29.50 L 540.50 27.00 L 535.50 24.00 L 538.00 21.50 L 543.00 21.50 L 548.00 22.50 L 551.00 27.50 L 556.00 27.50 L 561.00 30.50 L 573.00 30.50 L 577.00 33.50 L 590.00 32.50 L 593.00 34.50 L 596.00 31.50 L 600.00 33.50 L 609.00 33.50 L 611.00 39.50 Z M 135.50 28.00 L 136.50 23.00 L 135.00 21.50 L 132.50 26.00 Z M 124.50 31.00 L 124.50 28.00 L 126.50 26.00 L 125.00 24.50 L 121.50 29.00 Z M 137.50 37.00 L 138.50 34.00 L 136.00 29.50 L 134.50 32.00 L 135.50 36.00 Z M 144.50 32.00 L 145.50 31.00 L 144.00 29.50 L 142.50 31.00 Z M 96.50 33.00 L 97.50 32.00 L 96.00 30.50 L 94.50 32.00 Z M 129.50 36.00 L 130.50 34.00 L 129.00 32.50 L 127.50 35.00 Z M 162.50 60.00 L 164.00 56.50 L 167.00 57.50 L 168.50 56.00 L 164.50 52.00 L 167.50 46.00 L 165.50 44.00 L 165.50 41.00 L 168.50 37.00 L 166.00 34.50 L 159.50 41.00 L 163.50 44.00 L 164.50 47.00 L 163.00 48.50 L 160.00 46.50 L 157.00 47.50 L 155.00 45.50 L 147.00 44.50 L 139.50 50.00 L 143.00 54.50 L 159.00 57.50 Z M 267.00 46.50 L 260.00 44.50 L 257.50 40.00 L 261.00 38.50 L 274.00 39.50 L 275.50 41.00 L 273.00 44.50 Z M 185.50 52.00 L 189.50 48.00 L 188.00 46.50 L 182.50 49.00 L 182.50 51.00 Z M 333.50 59.00 L 339.50 52.00 L 335.00 46.50 L 332.50 48.00 L 334.50 51.00 L 330.50 55.00 L 330.50 57.00 Z M 14.00 64.50 L 11.50 63.00 L 14.00 60.50 L 15.50 62.00 Z M 0.00 63.50 L 3.00 62.50 L 4.50 64.00 L 3.00 65.50 L 0.00 64.50 Z M 195.50 73.00 L 199.50 69.00 L 198.00 67.50 L 193.50 71.00 Z M 525.50 94.00 L 528.00 91.50 L 534.00 91.50 L 539.50 88.00 L 540.50 80.00 L 545.50 75.00 L 543.00 70.50 L 535.00 78.50 L 532.00 80.50 L 527.00 80.50 L 524.50 83.00 L 522.50 87.00 L 524.50 90.00 L 523.50 93.00 Z M 392.50 90.00 L 393.50 89.00 L 391.50 82.00 L 386.50 77.00 L 390.50 74.00 L 389.00 72.50 L 387.00 74.50 L 383.00 74.50 L 381.50 78.00 L 388.50 83.00 L 384.50 88.00 L 386.00 89.50 Z M 370.50 82.00 L 371.50 81.00 L 367.00 77.50 L 363.00 75.50 L 361.00 77.50 L 358.00 77.50 L 355.00 73.50 L 349.50 80.00 L 351.00 82.50 L 355.00 82.50 L 358.00 80.50 L 362.00 80.50 L 365.00 82.50 Z M 357.50 100.00 L 361.50 95.00 L 360.00 92.50 L 351.00 92.50 L 345.00 88.50 L 339.00 92.50 L 333.00 84.50 L 327.00 91.50 L 325.00 91.50 L 322.50 89.00 L 327.50 86.00 L 320.00 82.50 L 316.00 78.50 L 313.00 80.50 L 309.00 80.50 L 306.50 83.00 L 307.50 85.00 L 306.00 86.50 L 303.00 84.50 L 300.50 89.00 L 302.00 90.50 L 313.00 88.50 L 314.50 87.00 L 313.50 84.00 L 317.00 82.50 L 318.50 85.00 L 316.50 87.00 L 320.50 91.00 L 320.50 95.00 L 323.00 97.50 L 330.00 100.50 L 333.00 100.50 L 338.00 96.50 L 343.00 98.50 Z M 507.50 89.00 L 509.50 87.00 L 508.00 85.50 L 505.50 87.00 Z M 392.50 112.00 L 394.50 110.00 L 390.00 106.50 L 388.50 109.00 Z M 508.00 116.50 L 506.50 113.00 L 510.00 110.50 L 511.50 113.00 Z M 171.00 120.50 L 164.00 116.50 L 157.00 116.50 L 155.50 115.00 L 162.00 112.50 L 170.00 116.50 L 172.50 119.00 Z M 485.50 121.00 L 487.50 119.00 L 486.00 117.50 L 483.50 120.00 Z M 187.00 124.50 L 184.00 122.50 L 177.00 123.50 L 173.50 121.00 L 177.00 118.50 L 180.00 118.50 L 184.00 121.50 L 187.00 120.50 L 188.50 122.00 Z M 372.50 128.00 L 373.50 126.00 L 368.00 118.50 L 366.50 120.00 L 370.50 127.00 Z M 516.00 144.50 L 512.00 142.50 L 509.50 140.00 L 509.50 136.00 L 505.50 134.00 L 508.50 131.00 L 505.50 128.00 L 505.50 126.00 L 510.00 120.50 L 512.50 123.00 L 511.50 127.00 L 518.50 133.00 L 516.50 137.00 L 519.50 141.00 Z M 168.00 125.50 L 165.50 124.00 L 167.00 122.50 L 169.50 124.00 Z M 500.00 160.50 L 491.00 159.50 L 487.50 151.00 L 494.00 148.50 L 502.00 140.50 L 505.50 145.00 L 503.50 148.00 L 505.50 152.00 L 501.50 156.00 Z M 521.00 155.50 L 519.50 152.00 L 522.00 149.50 L 523.50 153.00 Z M 512.00 163.50 L 508.00 160.50 L 506.00 161.50 L 504.50 160.00 L 506.50 154.00 L 505.50 153.00 L 507.00 151.50 L 515.00 150.50 L 516.50 152.00 L 513.50 155.00 L 513.50 162.00 Z M 552.00 222.50 L 549.00 220.50 L 546.00 222.50 L 540.50 218.00 L 539.00 214.50 L 536.00 212.50 L 533.00 214.50 L 527.00 208.50 L 516.00 209.50 L 513.00 213.50 L 508.00 213.50 L 505.00 215.50 L 500.00 215.50 L 497.50 213.00 L 500.50 209.00 L 495.50 202.00 L 496.50 198.00 L 494.50 196.00 L 494.50 193.00 L 498.00 189.50 L 502.00 187.50 L 508.00 187.50 L 509.50 184.00 L 518.00 176.50 L 522.00 178.50 L 526.00 173.50 L 527.00 174.50 L 529.00 172.50 L 531.00 174.50 L 535.00 174.50 L 537.00 180.50 L 542.00 183.50 L 543.50 182.00 L 544.50 172.00 L 537.50 167.00 L 538.50 165.00 L 536.00 162.50 L 533.00 162.50 L 531.00 160.50 L 529.00 161.50 L 527.50 160.00 L 525.50 155.00 L 528.00 152.50 L 533.00 155.50 L 537.00 154.50 L 548.00 158.50 L 559.50 170.00 L 558.00 172.50 L 555.00 172.50 L 549.00 167.50 L 545.50 172.00 L 551.50 180.00 L 553.50 186.00 L 562.50 195.00 L 564.50 202.00 L 564.50 207.00 L 559.50 218.00 Z M 515.00 172.50 L 512.50 170.00 L 516.00 166.50 L 518.00 166.50 L 519.50 169.00 Z M 507.00 172.50 L 504.50 170.00 L 506.00 168.50 L 508.50 170.00 Z M 381.00 198.50 L 377.00 198.50 L 375.50 197.00 L 374.50 184.00 L 385.00 174.50 L 387.00 174.50 L 388.50 176.00 L 388.50 183.00 L 384.50 194.00 Z M 611.00 182.50 L 608.00 185.50 L 605.50 184.00 L 610.00 180.50 L 611.00 181.50 Z M 587.00 193.50 L 583.50 191.00 L 585.00 188.50 L 588.50 191.00 Z M 593.00 234.50 L 588.00 234.50 L 586.50 232.00 L 598.50 222.00 L 600.50 219.00 L 598.50 215.00 L 600.00 213.50 L 605.00 218.50 L 607.00 218.50 L 607.50 221.00 Z M 554.00 229.50 L 552.00 229.50 L 548.50 226.00 L 552.00 223.50 L 555.00 223.50 L 556.50 226.00 Z"/>
</svg>
